PathFileType	4	(X/Y/Z)	D:/83_35.trc
DataRate	CameraRate	NumFrames	NumMarkers	Units	OrigDataRate	OrigDataStartFrame	OrigNumFrames
120.00	120.00	8	41	mm	120.00	623	1048
Frame#	Time	LFWT			RFWT			LBWT			RBWT			LTHI			LKNE			LSHN			LANK			LHEE			LMT5			LTOE			RTHI			RKNE			RSHN			RANK			RHEE			RMT5			RTOE			CLAV			STRN			C7			T10			RBAC			LFHD			RFHD			LBHD			RBHD			LSHO			LUPA			LELB			LFRM			LWRA			LWRB			LFIN			RSHO			RUPA			RELB			RFRM			RWRA			RWRB			RFIN
		X1	Y1	Z1	X2	Y2	Z2	X3	Y3	Z3	X4	Y4	Z4	X5	Y5	Z5	X6	Y6	Z6	X7	Y7	Z7	X8	Y8	Z8	X9	Y9	Z9	X10	Y10	Z10	X11	Y11	Z11	X12	Y12	Z12	X13	Y13	Z13	X14	Y14	Z14	X15	Y15	Z15	X16	Y16	Z16	X17	Y17	Z17	X18	Y18	Z18	X19	Y19	Z19	X20	Y20	Z20	X21	Y21	Z21	X22	Y22	Z22	X23	Y23	Z23	X24	Y24	Z24	X25	Y25	Z25	X26	Y26	Z26	X27	Y27	Z27	X28	Y28	Z28	X29	Y29	Z29	X30	Y30	Z30	X31	Y31	Z31	X32	Y32	Z32	X33	Y33	Z33	X34	Y34	Z34	X35	Y35	Z35	X36	Y36	Z36	X37	Y37	Z37	X38	Y38	Z38	X39	Y39	Z39	X40	Y40	Z40	X41	Y41	Z41

525	4.367	130.48680	444.42297	912.29193	130.97470	707.58350	884.52344	296.55893	484.54370	957.11053	294.83066	623.86285	956.58307	-20.67735	391.67966	748.07928	-140.37527	427.02496	654.63403	-55.70567	408.15366	420.81122	2.15849	430.26202	298.17889	53.89901	486.07632	285.73026	-79.52704	393.84656	251.20102	-131.81938	468.40918	266.73337	193.72527	722.60449	664.68207	176.89427	680.34253	441.16830	214.13153	697.88837	328.31009	244.75081	625.98206	60.08028	310.65521	575.76831	20.60806	142.08307	660.94995	30.53066	103.21212	585.11188	53.32349	90.03077	554.91736	1296.22913	105.05517	553.18005	1118.63892	196.85159	555.30725	1402.68494	308.72925	559.05200	1201.32947	286.76022	638.51801	1287.65747	-55.27228	484.30341	1477.30066	-38.51027	644.39539	1475.83044	95.55038	501.30249	1510.93848	105.94672	610.40021	1512.66992	160.26115	414.79358	1384.39832	242.34270	324.26501	1184.01746	278.67819	314.09906	1091.67712	284.82983	293.09973	923.40326	162.26807	315.15891	824.25409	290.99884	245.47008	820.57550	206.43085	268.30576	759.97296	161.34027	708.09515	1370.83752	199.52252	782.44110	1258.09277	261.48312	792.66290	1065.66162	262.09320	785.90289	989.20844	63.70080	815.36676	841.09698	195.04210	856.51764	795.64111	155.13832	846.46899	766.57532
526	4.375	126.49120	444.21005	912.90912	127.69524	707.78937	883.99542	293.14496	484.49323	957.19128	291.72794	623.68762	956.66071	-24.21736	391.90009	749.01886	-144.19405	426.94360	655.83533	-66.34386	407.78882	419.61084	-12.07021	430.09222	295.39566	39.24720	485.93332	281.97394	-94.49277	393.70819	249.86943	-146.98051	469.07333	267.49124	190.93365	722.47217	664.61389	174.40993	680.39496	440.85831	212.90742	697.92493	328.04251	244.56821	625.97223	60.05870	310.67825	575.78168	20.58707	141.95253	661.07385	30.48526	102.93576	585.19098	53.02824	86.64001	554.37915	1296.01270	101.60735	553.20905	1118.41565	193.25531	555.31024	1402.57629	305.26147	559.37463	1201.44055	283.05066	638.74701	1287.59705	-59.03216	483.61038	1476.38379	-42.19600	643.60577	1475.37073	91.57500	500.75391	1510.57825	101.69289	609.97455	1512.53748	156.85442	414.53250	1384.10156	239.91156	324.26785	1183.99927	275.72638	313.93146	1091.36572	282.44797	293.46262	923.09076	160.62021	314.74905	823.94678	289.23129	245.60843	820.58948	204.66319	268.11340	759.75171	157.09538	708.11469	1370.83765	195.32584	782.57092	1258.20898	256.36856	792.94177	1065.49048	256.74207	786.17950	988.85144	58.69754	813.65173	841.04901	188.77960	855.74811	795.63654	149.12682	845.69647	766.28418
527	4.383	122.15982	444.25424	913.44568	124.05087	707.84540	883.68799	289.77081	484.45255	957.39301	288.47433	623.65741	956.56659	-27.35908	391.90359	749.75281	-148.00520	426.85892	656.83282	-76.82841	407.65927	418.29410	-26.07552	430.06067	292.89740	25.27091	485.79016	278.22723	-110.34007	394.10281	248.91029	-161.44954	470.02634	267.93445	187.97585	722.26849	664.39063	172.19228	680.47925	440.65158	211.57117	697.84619	327.90045	244.42542	625.99658	60.01090	310.65030	575.70233	20.77779	141.97763	661.16449	30.36390	102.75475	585.20319	52.88025	82.50333	554.28302	1295.74524	98.42663	553.10968	1118.05469	189.56018	555.31555	1402.61096	301.65829	559.92499	1201.48193	279.43759	639.01508	1287.72266	-62.55999	482.82559	1476.08386	-46.10641	643.06335	1475.13354	88.22429	500.00925	1510.43555	97.51041	609.79077	1512.28369	153.30290	414.30652	1383.86792	236.90132	324.28577	1183.82996	272.77252	313.92236	1091.12366	279.94678	293.73404	923.03107	158.60666	314.84338	823.43561	287.30078	245.52115	820.47205	202.57336	268.03964	759.53021	152.91278	707.97479	1370.71973	190.84673	782.67102	1258.27063	251.67145	793.28009	1065.24719	251.84251	786.51056	988.62622	53.15227	811.81512	841.13446	182.45802	854.63159	795.55469	147.51685	843.81104	765.91412
528	4.392	118.39089	444.67212	913.55157	120.39256	707.92749	883.52924	285.92178	484.42291	957.36383	284.70102	623.82141	956.38647	-30.40037	391.73059	750.09265	-152.05905	426.64606	657.54498	-86.74868	407.73764	416.81866	-39.62739	430.41519	290.04843	11.97873	485.47318	274.54642	-125.35830	394.87039	247.79332	-175.45448	471.22363	268.12436	184.94316	722.11200	664.12793	170.57275	680.52972	440.34930	209.99942	697.70032	327.80124	244.41074	625.99414	59.97012	310.57681	575.61829	20.94648	142.04309	661.20422	30.17996	102.65540	585.18616	52.90567	78.67170	554.25494	1295.41980	94.77997	553.23865	1117.87842	185.69849	555.37518	1402.60193	298.06830	560.40259	1201.45837	275.46570	639.08215	1287.81616	-66.12156	481.65155	1475.90613	-50.75249	642.12427	1474.95667	84.70658	499.50400	1510.20728	93.44785	609.39484	1512.10413	149.85030	414.32343	1383.53662	233.69272	324.38373	1183.58691	269.99689	314.15656	1090.95850	277.27151	293.55228	923.02008	156.23662	314.61691	822.93945	285.27127	245.46164	820.43915	200.56969	267.67108	759.11841	148.61923	707.76947	1370.59521	186.45171	782.58783	1258.17102	247.02695	793.64221	1064.85400	247.04277	786.74585	988.30658	47.55609	810.17365	841.39514	176.31789	853.50018	795.43823	142.51480	842.32166	765.77368
529	4.400	115.16907	445.00580	913.39319	117.16238	708.10083	883.12927	282.24539	484.31302	957.26031	281.00198	623.85223	956.12750	-33.92974	391.64163	750.16229	-156.05679	426.58917	657.59192	-96.35970	407.74289	415.30292	-52.55275	430.79672	287.25824	-1.64300	485.35992	270.87604	-139.17827	395.79129	246.21033	-188.91060	472.27008	268.24313	181.81454	722.09155	663.58673	168.89706	680.45709	439.76520	208.24937	697.55518	327.67767	244.31439	626.01422	60.01310	310.31900	575.68835	20.83878	142.01001	661.19635	30.08073	102.70165	585.28229	52.89612	75.27740	553.85120	1295.09790	91.30279	553.30847	1117.60864	181.88472	554.93463	1402.33728	294.55460	560.55994	1201.43176	271.52280	638.95953	1287.78137	-69.66030	480.83154	1474.92566	-53.91140	640.97131	1474.14075	80.69294	499.07999	1509.97437	89.34834	608.86053	1511.87915	146.39925	414.38196	1383.13269	230.62416	324.50842	1183.41736	267.26721	314.28757	1090.71997	274.61057	293.22034	922.73883	153.60252	314.06863	822.42303	283.05447	245.50113	820.33661	198.50806	267.22791	758.92975	144.61533	707.54370	1370.62207	181.87250	782.62006	1258.03601	242.43623	793.93738	1064.35181	241.91068	786.68384	988.02527	42.02037	808.36279	841.69299	170.53287	852.48914	795.31537	135.61974	841.28314	765.82117
530	4.408	111.77040	445.07486	913.23682	113.89161	708.17303	882.67035	278.68362	484.16415	957.11139	277.40900	623.62988	955.75006	-38.03168	391.80170	750.14764	-159.96402	426.79733	657.38928	-106.02306	407.77142	413.79456	-64.81788	430.62033	285.07080	-14.69414	485.36646	267.43182	-152.60126	396.75198	244.58363	-201.37907	473.07556	268.26068	178.90347	722.07007	662.96063	167.51303	680.36896	439.62704	206.77036	697.45233	327.61304	244.19318	626.01300	60.12231	310.12915	575.75476	20.79613	141.94232	661.23016	29.97954	102.64371	585.23889	52.81343	71.59529	553.43811	1294.75964	87.50314	552.98944	1117.27673	177.76927	554.31873	1401.82288	290.68579	560.83978	1201.18250	267.65027	639.17889	1287.92468	-74.01601	480.18207	1475.42480	-59.61719	640.75525	1474.59192	76.72507	498.59280	1509.57727	85.42373	608.53339	1511.71875	142.89188	414.08252	1382.82092	227.46574	324.61804	1183.26331	264.12070	314.27963	1090.59949	272.15149	293.13113	922.30103	150.81876	313.62650	822.01239	280.57120	245.48875	819.97791	196.41797	266.92813	758.74042	140.68774	707.24615	1370.52576	176.95294	782.67261	1257.93738	237.75879	794.14557	1064.18933	236.83086	786.56781	987.82452	35.40739	806.15857	841.95483	164.65422	851.67609	795.09039	128.94971	840.31885	765.90735
531	4.417	107.66891	445.06192	913.31323	109.98422	708.03735	882.35028	274.67566	484.06296	956.81519	273.47864	623.44177	955.33844	-42.07618	392.09473	749.75775	-163.70216	426.95355	656.95441	-115.40499	407.96176	412.27863	-76.23413	430.29993	282.78952	-25.68492	484.84192	264.35535	-165.23242	397.59991	243.00372	-212.64638	473.89801	267.68567	176.24422	721.88446	662.80402	165.78889	680.31409	439.48746	205.33974	697.31177	327.45566	244.11433	625.91119	60.23422	310.24457	575.67822	20.88594	141.97569	661.22809	29.82524	102.32714	585.08453	52.69101	67.76131	553.34119	1294.50854	83.35524	552.78345	1117.03296	173.87042	554.17889	1401.49182	286.57706	561.08478	1200.70508	263.45059	639.69562	1287.88232	-77.20708	479.12323	1473.51135	-62.68787	639.22656	1473.36951	72.67889	498.03708	1508.98413	81.65919	608.00031	1511.65198	139.55423	413.58182	1382.55481	224.09276	324.66592	1182.83704	260.96252	314.31091	1090.48462	269.68100	293.36139	922.05347	148.35616	313.47113	821.69733	278.25488	245.52216	819.71881	194.23776	266.73404	758.11975	136.20293	707.10797	1370.22180	172.43413	782.55536	1257.67444	232.75624	794.24390	1064.05261	231.82195	786.60577	987.54517	29.03700	804.08264	842.07062	158.27484	851.00183	794.83484	123.60854	838.79468	765.59039
532	4.425	103.49908	445.08667	913.21722	106.33272	707.95532	881.98633	270.81790	484.04407	956.48767	269.88113	623.36432	955.11041	-45.66314	392.27414	749.02441	-167.43317	426.94876	656.19940	-124.35987	408.16083	410.91391	-87.16080	430.21799	280.29938	-35.79934	484.07275	261.33270	-176.83412	398.08475	241.58386	-223.21753	474.92105	266.77261	173.45454	721.64233	662.79602	162.70453	680.28290	439.00027	203.60840	697.06073	327.20029	244.02333	625.81274	60.23817	310.39850	575.45636	21.04738	142.04218	661.18567	29.65513	102.44972	585.25415	52.52550	63.76464	553.01062	1294.30383	79.70627	552.78802	1116.77734	170.32428	554.22931	1401.43799	282.92676	560.86481	1200.48389	259.15189	639.88489	1287.64587	-81.16693	478.60669	1472.68469	-66.60954	638.74255	1473.19775	68.75433	497.41809	1508.32910	77.62941	607.22253	1511.41028	136.12091	413.24329	1382.17761	220.59193	324.60999	1182.11829	258.05096	314.44458	1090.03137	266.98212	293.51880	921.91864	146.25261	313.42566	821.28827	276.15781	245.52022	819.69257	191.65207	266.70883	757.50531	131.64586	706.92883	1369.96179	168.15785	782.37372	1257.33398	227.72620	794.30115	1063.54053	226.75807	786.54236	987.20032	23.62569	802.21466	842.09784	151.85226	850.58246	794.10260	116.93253	837.05756	765.22314
